<?xml version="1.0" encoding="UTF-8" standalone="no"?>
<svg
   viewBox="0 0 500 500"
   width="500"
   height="500"
   version="1.1"
   id="svg24"
   sodipodi:docname="icons8-fita-de-bookmark.svg"
   inkscape:export-filename="/home/lucas/desk/bookmark.png"
   inkscape:export-xdpi="96"
   inkscape:export-ydpi="96"
   inkscape:version="1.1 (c4e8f9ed74, 2021-05-24)"
   xmlns:inkscape="http://www.inkscape.org/namespaces/inkscape"
   xmlns:sodipodi="http://sodipodi.sourceforge.net/DTD/sodipodi-0.dtd"
   xmlns="http://www.w3.org/2000/svg"
   xmlns:svg="http://www.w3.org/2000/svg">
  <defs
     id="defs28" />
  <sodipodi:namedview
     id="namedview26"
     pagecolor="#505050"
     bordercolor="#eeeeee"
     borderopacity="1"
     inkscape:pageshadow="0"
     inkscape:pageopacity="0"
     inkscape:pagecheckerboard="0"
     showgrid="false"
     width="500px"
     inkscape:zoom="0.94125"
     inkscape:cx="48.339973"
     inkscape:cy="349.53519"
     inkscape:window-width="2560"
     inkscape:window-height="1381"
     inkscape:window-x="0"
     inkscape:window-y="0"
     inkscape:window-maximized="1"
     inkscape:current-layer="svg24" />
  <g
     id="g41"
     transform="matrix(7.3529171,0,0,7.3529171,-117.64586,-132.35251)">
    <path
       fill="#f15b6c"
       d="M 71,19 H 29 V 85 L 50,71.864 71,85 Z"
       id="path2" />
    <path
       fill="#f37e98"
       d="m 68,22.5 v 56.177 c 0,0.393 -0.432,0.632 -0.765,0.424 L 50,68.32 32.765,79.101 C 32.432,79.31 32,79.07 32,78.677 V 22.5 C 32,22.224 32.224,22 32.5,22 h 35 c 0.276,0 0.5,0.224 0.5,0.5 z"
       id="path4" />
    <path
       fill="#fef6aa"
       d="m 50,28 a 11,11 0 1 0 0,22 11,11 0 1 0 0,-22 z"
       id="path6" />
    <path
       fill="#f9e65c"
       d="M 55.77,38.35 53.46,40.7 54,44.01 c 0.06,0.3 -0.06,0.6 -0.31,0.79 -0.13,0.15 -0.54,0.23 -0.84,0.08 L 50,43.32 47.17,44.87 c -0.11,0.07 -0.25,0.1 -0.38,0.1 -0.17,0 -0.34,-0.06 -0.48,-0.16 C 46.06,44.61 45.94,44.31 46,44 l 0.54,-3.3 -2.31,-2.35 c -0.2,-0.21 -0.28,-0.53 -0.2,-0.81 0.12,-0.32 0.35,-0.52 0.64,-0.57 l 3.19,-0.48 1.41,-3 c 0.29,-0.57 1.18,-0.56 1.45,-0.01 l 1.42,3.01 3.17,0.48 c 0.31,0.05 0.54,0.25 0.65,0.54 0.09,0.31 0.01,0.63 -0.19,0.84 z"
       id="path8" />
    <path
       fill="#1f212b"
       d="M 67.5,35 C 67.224,35 67,34.776 67,34.5 V 23 H 41.5 C 41.224,23 41,22.776 41,22.5 41,22.224 41.224,22 41.5,22 h 26 c 0.276,0 0.5,0.224 0.5,0.5 v 12 c 0,0.276 -0.224,0.5 -0.5,0.5 z m -35,44.18 c -0.083,0 -0.167,-0.021 -0.242,-0.062 C 32.099,79.029 32,78.861 32,78.68 V 27.5 c 0,-0.276 0.224,-0.5 0.5,-0.5 0.276,0 0.5,0.224 0.5,0.5 v 50.277 l 3.235,-2.021 c 0.234,-0.147 0.543,-0.075 0.689,0.159 0.146,0.233 0.075,0.542 -0.159,0.688 l -4,2.5 C 32.684,79.154 32.592,79.18 32.5,79.18 Z m 35,0 c -0.092,0 -0.184,-0.025 -0.265,-0.076 L 50,68.33 42.765,72.852 c -0.234,0.147 -0.543,0.076 -0.689,-0.159 -0.146,-0.233 -0.075,-0.542 0.159,-0.688 l 7.5,-4.688 c 0.162,-0.102 0.368,-0.102 0.53,0 L 67,77.777 V 47.5 c 0,-0.276 0.224,-0.5 0.5,-0.5 0.276,0 0.5,0.224 0.5,0.5 v 31.18 c 0,0.182 -0.099,0.35 -0.258,0.438 -0.075,0.041 -0.159,0.062 -0.242,0.062 z M 67.5,45 C 67.224,45 67,44.776 67,44.5 v -3 c 0,-0.276 0.224,-0.5 0.5,-0.5 0.276,0 0.5,0.224 0.5,0.5 v 3 c 0,0.276 -0.224,0.5 -0.5,0.5 z m 0,-6 C 67.224,39 67,38.776 67,38.5 v -1 c 0,-0.276 0.224,-0.5 0.5,-0.5 0.276,0 0.5,0.224 0.5,0.5 v 1 c 0,0.276 -0.224,0.5 -0.5,0.5 z"
       id="path10" />
    <g
       id="g14">
      <path
         fill="#1f212b"
         d="m 71,86 c -0.185,0 -0.369,-0.051 -0.53,-0.152 L 50,73.043 29.53,85.848 c -0.308,0.193 -0.697,0.203 -1.015,0.027 C 28.197,85.698 28,85.363 28,85 V 19 c 0,-0.553 0.448,-1 1,-1 h 42 c 0.552,0 1,0.447 1,1 v 66 c 0,0.363 -0.197,0.698 -0.516,0.875 C 71.333,85.958 71.167,86 71,86 Z M 50,70.863 c 0.184,0 0.368,0.051 0.53,0.152 L 70,83.195 V 20 H 30 v 63.195 l 19.47,-12.18 c 0.162,-0.101 0.346,-0.152 0.53,-0.152 z"
         id="path12" />
    </g>
    <g
       id="g18">
      <path
         fill="#1f212b"
         d="m 50,50 c -6.065,0 -11,-4.935 -11,-11 0,-2.003 0.543,-3.963 1.572,-5.669 0.142,-0.238 0.449,-0.312 0.687,-0.171 0.236,0.143 0.312,0.45 0.17,0.687 C 40.494,35.397 40,37.18 40,39 c 0,5.514 4.486,10 10,10 5.514,0 10,-4.486 10,-10 0,-5.514 -4.486,-10 -10,-10 -2.271,0 -4.412,0.742 -6.19,2.146 -0.215,0.171 -0.531,0.134 -0.702,-0.083 -0.171,-0.217 -0.134,-0.531 0.083,-0.702 C 45.146,28.816 47.501,28 50,28 c 6.065,0 11,4.935 11,11 0,6.065 -4.935,11 -11,11 z"
         id="path16" />
    </g>
    <g
       id="g22">
      <path
         fill="#1f212b"
         d="m 46.792,44.967 c -0.171,0 -0.342,-0.053 -0.48,-0.157 C 46.062,44.615 45.945,44.307 46,44.002 l 0.541,-3.304 -2.308,-2.349 c -0.207,-0.207 -0.286,-0.527 -0.199,-0.814 0.113,-0.314 0.344,-0.512 0.64,-0.566 l 3.184,-0.48 1.415,-3.002 c 0.282,-0.566 1.177,-0.556 1.449,-0.011 l 1.419,3.013 3.167,0.478 c 0.313,0.058 0.544,0.255 0.649,0.544 0.095,0.312 0.016,0.633 -0.194,0.843 L 53.458,40.7 54,44.012 c 0.054,0.297 -0.063,0.604 -0.308,0.795 -0.137,0.146 -0.544,0.225 -0.846,0.077 l -3.088,-1.693 c -0.242,-0.133 -0.331,-0.437 -0.198,-0.679 0.132,-0.242 0.436,-0.332 0.679,-0.198 l 2.713,1.488 -0.522,-3.19 c -0.025,-0.157 0.025,-0.317 0.137,-0.432 L 54.804,37.903 51.727,37.44 C 51.562,37.416 51.42,37.31 51.349,37.159 L 50,34.289 48.649,37.156 c -0.071,0.151 -0.213,0.257 -0.378,0.281 l -3.077,0.464 2.237,2.276 c 0.112,0.114 0.163,0.274 0.137,0.432 l -0.545,3.332 c 0.142,0.026 0.271,0.113 0.347,0.25 0.133,0.241 0.045,0.546 -0.196,0.679 -0.118,0.066 -0.25,0.097 -0.382,0.097 z m 6.223,-0.792 c 0,0.002 0,0.004 0,0.005 z m -6.029,-0.008 v 0.005 c 0,-0.002 0,-0.003 0,-0.005 z m -0.295,-0.173 c 0,0 0,10e-4 0,0 0,10e-4 0,0 0,0 z m 8.363,-6.346 c -0.001,10e-4 -0.002,0.002 -0.003,0.003 z m -10.111,-0.002 0.003,0.003 c 0,-0.002 -0.002,-0.003 -0.003,-0.003 z"
         id="path20" />
    </g>
  </g>
</svg>
